<svg width="117" height="119" viewBox="0 0 117 119" fill="none" xmlns="http://www.w3.org/2000/svg">
<path d="M83.4802 92.09C60.7402 92.09 42.3102 73.66 42.3102 50.92C42.3102 28.18 60.7402 9.75 83.4802 9.75C87.1102 9.75 90.6103 10.27 93.9603 11.15C84.2403 4.16002 72.3503 0 59.4603 0C26.7503 0 0.240234 26.51 0.240234 59.22C0.240234 91.93 26.7503 118.44 59.4603 118.44C86.4503 118.44 109.18 100.37 116.31 75.67C108.8 85.62 96.9002 92.09 83.4702 92.09H83.4802Z" fill="#FAAF40"/>
<path d="M94.5601 24.7L101.83 37.57L116.32 40.51L106.32 51.4L108.01 66.1L94.5601 59.95L81.11 66.1L82.79 51.4L72.79 40.51L87.29 37.57L94.5601 24.7Z" fill="#ADE0F3"/>
</svg>
