<svg width="165" height="128" viewBox="0 0 165 128" fill="none" xmlns="http://www.w3.org/2000/svg">
<path d="M101.67 37C101.67 37 101.64 37 101.63 37C101.63 36.75 101.67 36.5 101.67 36.25C101.67 16.23 85.44 0 65.42 0C45.4 0 29.17 16.23 29.17 36.25C29.17 36.27 29.17 36.3 29.17 36.32C13.46 37.05 0.939941 49.98 0.939941 65.86C0.939941 81.74 14.1999 95.47 30.5499 95.47H101.67C117.82 95.47 130.91 82.38 130.91 66.23C130.91 50.08 117.82 36.99 101.67 36.99V37Z" fill="#82D2EC"/>
<path d="M134.79 69.1C134.79 69.1 134.76 69.1 134.75 69.1C134.75 68.85 134.79 68.6 134.79 68.35C134.79 48.33 118.56 32.1 98.5401 32.1C78.5201 32.1 62.2901 48.33 62.2901 68.35C62.2901 68.37 62.2901 68.4 62.2901 68.42C46.5801 69.15 34.0601 82.08 34.0601 97.96C34.0601 113.84 47.3201 127.57 63.6701 127.57H134.79C150.94 127.57 164.03 114.48 164.03 98.33C164.03 82.18 150.94 69.09 134.79 69.09V69.1Z" fill="#42BFEC"/>
</svg>
