<svg width="178" height="149" viewBox="0 0 178 149" fill="none" xmlns="http://www.w3.org/2000/svg">
<path d="M126.13 37C126.13 37 126.1 37 126.09 37C126.09 36.75 126.13 36.5 126.13 36.25C126.13 16.23 109.9 0 89.8804 0C69.8604 0 53.6304 16.23 53.6304 36.25C53.6304 36.27 53.6304 36.3 53.6304 36.32C37.9204 37.05 25.4004 49.98 25.4004 65.86C25.4004 81.74 38.6604 95.47 55.0104 95.47H126.13C142.28 95.47 155.37 82.38 155.37 66.23C155.37 50.08 142.28 36.9901 126.13 36.9901V37Z" fill="#42BFEC"/>
<path d="M134.92 113.41H45.6201C43.5401 113.41 41.8501 111.72 41.8501 109.64C41.8501 107.56 43.5401 105.87 45.6201 105.87H134.92C137 105.87 138.69 107.56 138.69 109.64C138.69 111.72 137 113.41 134.92 113.41Z" fill="#ADE0F3"/>
<path d="M173.51 113.41H154.54C152.46 113.41 150.77 111.72 150.77 109.64C150.77 107.56 152.46 105.87 154.54 105.87H173.51C175.59 105.87 177.28 107.56 177.28 109.64C177.28 111.72 175.59 113.41 173.51 113.41Z" fill="#ADE0F3"/>
<path d="M169.78 148.26H30.0502C27.9702 148.26 26.2803 146.57 26.2803 144.49C26.2803 142.41 27.9702 140.72 30.0502 140.72H169.78C171.86 140.72 173.55 142.41 173.55 144.49C173.55 146.57 171.86 148.26 169.78 148.26Z" fill="#ADE0F3"/>
<path d="M109.56 130.84H4.72015C2.64015 130.84 0.950195 129.15 0.950195 127.07C0.950195 124.99 2.64015 123.3 4.72015 123.3H109.56C111.64 123.3 113.33 124.99 113.33 127.07C113.33 129.15 111.64 130.84 109.56 130.84Z" fill="#ADE0F3"/>
<path d="M161.67 130.84H130.99C128.91 130.84 127.22 129.15 127.22 127.07C127.22 124.99 128.91 123.3 130.99 123.3H161.67C163.75 123.3 165.44 124.99 165.44 127.07C165.44 129.15 163.75 130.84 161.67 130.84Z" fill="#ADE0F3"/>
</svg>
