<svg width="131" height="139" viewBox="0 0 131 139" fill="none" xmlns="http://www.w3.org/2000/svg">
<path d="M101.13 37.7C101.13 37.7 101.1 37.7 101.09 37.7C101.09 37.45 101.13 37.2 101.13 36.95C101.13 16.93 84.8999 0.700012 64.8799 0.700012C44.8599 0.700012 28.6299 16.93 28.6299 36.95C28.6299 36.97 28.6299 37 28.6299 37.02C12.9199 37.75 0.399902 50.68 0.399902 66.56C0.399902 82.44 13.6599 96.17 30.0099 96.17H101.13C117.28 96.17 130.37 83.08 130.37 66.93C130.37 50.78 117.28 37.69 101.13 37.69V37.7Z" fill="#42BFEC"/>
<path d="M30.88 83.43C34.2545 83.43 36.99 80.6945 36.99 77.32C36.99 73.9455 34.2545 71.21 30.88 71.21C27.5055 71.21 24.77 73.9455 24.77 77.32C24.77 80.6945 27.5055 83.43 30.88 83.43Z" fill="#ADE0F3"/>
<path d="M30.88 102.28C34.2545 102.28 36.99 99.5444 36.99 96.17C36.99 92.7955 34.2545 90.06 30.88 90.06C27.5055 90.06 24.77 92.7955 24.77 96.17C24.77 99.5444 27.5055 102.28 30.88 102.28Z" fill="#ADE0F3"/>
<path d="M30.88 120.2C34.2545 120.2 36.99 117.464 36.99 114.09C36.99 110.716 34.2545 107.98 30.88 107.98C27.5055 107.98 24.77 110.716 24.77 114.09C24.77 117.464 27.5055 120.2 30.88 120.2Z" fill="#ADE0F3"/>
<path d="M30.88 138.11C34.2545 138.11 36.99 135.374 36.99 132C36.99 128.626 34.2545 125.89 30.88 125.89C27.5055 125.89 24.77 128.626 24.77 132C24.77 135.374 27.5055 138.11 30.88 138.11Z" fill="#ADE0F3"/>
<path d="M53.88 83.43C57.2545 83.43 59.99 80.6945 59.99 77.32C59.99 73.9455 57.2545 71.21 53.88 71.21C50.5055 71.21 47.77 73.9455 47.77 77.32C47.77 80.6945 50.5055 83.43 53.88 83.43Z" fill="#ADE0F3"/>
<path d="M53.88 102.28C57.2545 102.28 59.99 99.5444 59.99 96.17C59.99 92.7955 57.2545 90.06 53.88 90.06C50.5055 90.06 47.77 92.7955 47.77 96.17C47.77 99.5444 50.5055 102.28 53.88 102.28Z" fill="#ADE0F3"/>
<path d="M53.88 120.2C57.2545 120.2 59.99 117.464 59.99 114.09C59.99 110.716 57.2545 107.98 53.88 107.98C50.5055 107.98 47.77 110.716 47.77 114.09C47.77 117.464 50.5055 120.2 53.88 120.2Z" fill="#ADE0F3"/>
<path d="M53.88 138.11C57.2545 138.11 59.99 135.374 59.99 132C59.99 128.626 57.2545 125.89 53.88 125.89C50.5055 125.89 47.77 128.626 47.77 132C47.77 135.374 50.5055 138.11 53.88 138.11Z" fill="#ADE0F3"/>
<path d="M76.8903 83.43C80.2647 83.43 83.0002 80.6945 83.0002 77.32C83.0002 73.9455 80.2647 71.21 76.8903 71.21C73.5158 71.21 70.7803 73.9455 70.7803 77.32C70.7803 80.6945 73.5158 83.43 76.8903 83.43Z" fill="#ADE0F3"/>
<path d="M76.8903 102.28C80.2647 102.28 83.0002 99.5444 83.0002 96.17C83.0002 92.7955 80.2647 90.06 76.8903 90.06C73.5158 90.06 70.7803 92.7955 70.7803 96.17C70.7803 99.5444 73.5158 102.28 76.8903 102.28Z" fill="#ADE0F3"/>
<path d="M76.8903 120.2C80.2647 120.2 83.0002 117.464 83.0002 114.09C83.0002 110.716 80.2647 107.98 76.8903 107.98C73.5158 107.98 70.7803 110.716 70.7803 114.09C70.7803 117.464 73.5158 120.2 76.8903 120.2Z" fill="#ADE0F3"/>
<path d="M76.8903 138.11C80.2647 138.11 83.0002 135.374 83.0002 132C83.0002 128.626 80.2647 125.89 76.8903 125.89C73.5158 125.89 70.7803 128.626 70.7803 132C70.7803 135.374 73.5158 138.11 76.8903 138.11Z" fill="#ADE0F3"/>
<path d="M99.8903 83.43C103.265 83.43 106 80.6945 106 77.32C106 73.9455 103.265 71.21 99.8903 71.21C96.5158 71.21 93.7803 73.9455 93.7803 77.32C93.7803 80.6945 96.5158 83.43 99.8903 83.43Z" fill="#ADE0F3"/>
<path d="M99.8903 102.28C103.265 102.28 106 99.5444 106 96.17C106 92.7955 103.265 90.06 99.8903 90.06C96.5158 90.06 93.7803 92.7955 93.7803 96.17C93.7803 99.5444 96.5158 102.28 99.8903 102.28Z" fill="#ADE0F3"/>
<path d="M99.8903 120.2C103.265 120.2 106 117.464 106 114.09C106 110.716 103.265 107.98 99.8903 107.98C96.5158 107.98 93.7803 110.716 93.7803 114.09C93.7803 117.464 96.5158 120.2 99.8903 120.2Z" fill="#ADE0F3"/>
<path d="M99.8903 138.11C103.265 138.11 106 135.374 106 132C106 128.626 103.265 125.89 99.8903 125.89C96.5158 125.89 93.7803 128.626 93.7803 132C93.7803 135.374 96.5158 138.11 99.8903 138.11Z" fill="#ADE0F3"/>
</svg>
