<svg width="139" height="34" viewBox="0 0 139 34" fill="none" xmlns="http://www.w3.org/2000/svg">
<path d="M18.828 13.508L14.916 25.82H12.54C12.268 25.82 12.08 25.644 11.976 25.292L9.768 18.176C9.696 17.936 9.628 17.7 9.564 17.468C9.508 17.228 9.46 16.988 9.42 16.748C9.372 16.988 9.316 17.232 9.252 17.48C9.196 17.72 9.132 17.96 9.06 18.2L6.816 25.292C6.72 25.644 6.508 25.82 6.18 25.82H3.9L0 13.508H2.364C2.58 13.508 2.764 13.56 2.916 13.664C3.068 13.768 3.168 13.9 3.216 14.06L4.98 20.636C5.068 20.996 5.144 21.348 5.208 21.692C5.28 22.036 5.34 22.38 5.388 22.724C5.476 22.38 5.568 22.036 5.664 21.692C5.768 21.348 5.876 20.996 5.988 20.636L8.028 14.036C8.076 13.876 8.168 13.744 8.304 13.64C8.448 13.536 8.62 13.484 8.82 13.484H10.128C10.336 13.484 10.512 13.536 10.656 13.64C10.808 13.744 10.908 13.876 10.956 14.036L12.936 20.636C13.04 20.996 13.136 21.352 13.224 21.704C13.32 22.048 13.412 22.392 13.5 22.736C13.604 22.056 13.752 21.356 13.944 20.636L15.756 14.06C15.812 13.9 15.912 13.768 16.056 13.664C16.2 13.56 16.372 13.508 16.572 13.508H18.828Z" fill="#2D2C2C"/>
<path d="M28.2347 18.248C28.2347 17.864 28.1787 17.504 28.0667 17.168C27.9627 16.824 27.8027 16.524 27.5867 16.268C27.3707 16.012 27.0947 15.812 26.7587 15.668C26.4307 15.516 26.0467 15.44 25.6067 15.44C24.7507 15.44 24.0747 15.684 23.5787 16.172C23.0907 16.66 22.7787 17.352 22.6427 18.248H28.2347ZM22.5827 20.036C22.6307 20.668 22.7427 21.216 22.9187 21.68C23.0947 22.136 23.3267 22.516 23.6147 22.82C23.9027 23.116 24.2427 23.34 24.6347 23.492C25.0347 23.636 25.4747 23.708 25.9547 23.708C26.4347 23.708 26.8467 23.652 27.1907 23.54C27.5427 23.428 27.8467 23.304 28.1027 23.168C28.3667 23.032 28.5947 22.908 28.7867 22.796C28.9867 22.684 29.1787 22.628 29.3627 22.628C29.6107 22.628 29.7947 22.72 29.9147 22.904L30.7667 23.984C30.4387 24.368 30.0707 24.692 29.6627 24.956C29.2547 25.212 28.8267 25.42 28.3787 25.58C27.9387 25.732 27.4867 25.84 27.0227 25.904C26.5667 25.968 26.1227 26 25.6907 26C24.8347 26 24.0387 25.86 23.3027 25.58C22.5667 25.292 21.9267 24.872 21.3827 24.32C20.8387 23.76 20.4107 23.072 20.0987 22.256C19.7867 21.432 19.6307 20.48 19.6307 19.4C19.6307 18.56 19.7667 17.772 20.0387 17.036C20.3107 16.292 20.6987 15.648 21.2027 15.104C21.7147 14.552 22.3347 14.116 23.0627 13.796C23.7987 13.476 24.6267 13.316 25.5467 13.316C26.3227 13.316 27.0387 13.44 27.6947 13.688C28.3507 13.936 28.9147 14.3 29.3867 14.78C29.8587 15.252 30.2267 15.836 30.4907 16.532C30.7627 17.22 30.8987 18.008 30.8987 18.896C30.8987 19.344 30.8507 19.648 30.7547 19.808C30.6587 19.96 30.4747 20.036 30.2027 20.036H22.5827Z" fill="#2D2C2C"/>
<path d="M39.627 20.564C38.771 20.604 38.051 20.68 37.467 20.792C36.883 20.896 36.415 21.032 36.063 21.2C35.711 21.368 35.459 21.564 35.307 21.788C35.155 22.012 35.079 22.256 35.079 22.52C35.079 23.04 35.231 23.412 35.535 23.636C35.847 23.86 36.251 23.972 36.747 23.972C37.355 23.972 37.879 23.864 38.319 23.648C38.767 23.424 39.203 23.088 39.627 22.64V20.564ZM32.835 15.224C34.251 13.928 35.955 13.28 37.947 13.28C38.667 13.28 39.311 13.4 39.879 13.64C40.447 13.872 40.927 14.2 41.319 14.624C41.711 15.04 42.007 15.54 42.207 16.124C42.415 16.708 42.519 17.348 42.519 18.044V25.82H41.175C40.895 25.82 40.679 25.78 40.527 25.7C40.375 25.612 40.255 25.44 40.167 25.184L39.903 24.296C39.591 24.576 39.287 24.824 38.991 25.04C38.695 25.248 38.387 25.424 38.067 25.568C37.747 25.712 37.403 25.82 37.035 25.892C36.675 25.972 36.275 26.012 35.835 26.012C35.315 26.012 34.835 25.944 34.395 25.808C33.955 25.664 33.575 25.452 33.255 25.172C32.935 24.892 32.687 24.544 32.511 24.128C32.335 23.712 32.247 23.228 32.247 22.676C32.247 22.364 32.299 22.056 32.403 21.752C32.507 21.44 32.675 21.144 32.907 20.864C33.147 20.584 33.455 20.32 33.831 20.072C34.207 19.824 34.667 19.608 35.211 19.424C35.763 19.24 36.403 19.092 37.131 18.98C37.859 18.86 38.691 18.788 39.627 18.764V18.044C39.627 17.22 39.451 16.612 39.099 16.22C38.747 15.82 38.239 15.62 37.575 15.62C37.095 15.62 36.695 15.676 36.375 15.788C36.063 15.9 35.787 16.028 35.547 16.172C35.307 16.308 35.087 16.432 34.887 16.544C34.695 16.656 34.479 16.712 34.239 16.712C34.031 16.712 33.855 16.66 33.711 16.556C33.567 16.444 33.451 16.316 33.363 16.172L32.835 15.224Z" fill="#2D2C2C"/>
<path d="M49.2504 26.012C48.1784 26.012 47.3544 25.712 46.7784 25.112C46.2104 24.504 45.9264 23.668 45.9264 22.604V15.728H44.6664C44.5064 15.728 44.3704 15.676 44.2584 15.572C44.1464 15.468 44.0904 15.312 44.0904 15.104V13.928L46.0704 13.604L46.6944 10.244C46.7344 10.084 46.8104 9.96004 46.9224 9.87204C47.0344 9.78404 47.1784 9.74004 47.3544 9.74004H48.8904V13.616H52.1784V15.728H48.8904V22.4C48.8904 22.784 48.9824 23.084 49.1664 23.3C49.3584 23.516 49.6184 23.624 49.9464 23.624C50.1304 23.624 50.2824 23.604 50.4024 23.564C50.5304 23.516 50.6384 23.468 50.7264 23.42C50.8224 23.372 50.9064 23.328 50.9784 23.288C51.0504 23.24 51.1224 23.216 51.1944 23.216C51.2824 23.216 51.3544 23.24 51.4104 23.288C51.4664 23.328 51.5264 23.392 51.5904 23.48L52.4784 24.92C52.0464 25.28 51.5504 25.552 50.9904 25.736C50.4304 25.92 49.8504 26.012 49.2504 26.012Z" fill="#2D2C2C"/>
<path d="M57.0401 14.828C57.5201 14.38 58.0481 14.016 58.6241 13.736C59.2001 13.456 59.8761 13.316 60.6521 13.316C61.3241 13.316 61.9201 13.432 62.4401 13.664C62.9601 13.888 63.3921 14.208 63.7361 14.624C64.0881 15.032 64.3521 15.524 64.5281 16.1C64.7121 16.668 64.8041 17.296 64.8041 17.984V25.82H61.8401V17.984C61.8401 17.232 61.6681 16.652 61.3241 16.244C60.9801 15.828 60.4561 15.62 59.7521 15.62C59.2401 15.62 58.7601 15.736 58.3121 15.968C57.8641 16.2 57.4401 16.516 57.0401 16.916V25.82H54.0761V7.98804H57.0401V14.828Z" fill="#2D2C2C"/>
<path d="M75.555 18.248C75.555 17.864 75.499 17.504 75.387 17.168C75.283 16.824 75.123 16.524 74.907 16.268C74.691 16.012 74.415 15.812 74.079 15.668C73.751 15.516 73.367 15.44 72.927 15.44C72.071 15.44 71.395 15.684 70.899 16.172C70.411 16.66 70.099 17.352 69.963 18.248H75.555ZM69.903 20.036C69.951 20.668 70.063 21.216 70.239 21.68C70.415 22.136 70.647 22.516 70.935 22.82C71.223 23.116 71.563 23.34 71.955 23.492C72.355 23.636 72.795 23.708 73.275 23.708C73.755 23.708 74.167 23.652 74.511 23.54C74.863 23.428 75.167 23.304 75.423 23.168C75.687 23.032 75.915 22.908 76.107 22.796C76.307 22.684 76.499 22.628 76.683 22.628C76.931 22.628 77.115 22.72 77.235 22.904L78.087 23.984C77.759 24.368 77.391 24.692 76.983 24.956C76.575 25.212 76.147 25.42 75.699 25.58C75.259 25.732 74.807 25.84 74.343 25.904C73.887 25.968 73.443 26 73.011 26C72.155 26 71.359 25.86 70.623 25.58C69.887 25.292 69.247 24.872 68.703 24.32C68.159 23.76 67.731 23.072 67.419 22.256C67.107 21.432 66.951 20.48 66.951 19.4C66.951 18.56 67.087 17.772 67.359 17.036C67.631 16.292 68.019 15.648 68.523 15.104C69.035 14.552 69.655 14.116 70.383 13.796C71.119 13.476 71.947 13.316 72.867 13.316C73.643 13.316 74.359 13.44 75.015 13.688C75.671 13.936 76.235 14.3 76.707 14.78C77.179 15.252 77.547 15.836 77.811 16.532C78.083 17.22 78.219 18.008 78.219 18.896C78.219 19.344 78.171 19.648 78.075 19.808C77.979 19.96 77.795 20.036 77.523 20.036H69.903Z" fill="#2D2C2C"/>
<path d="M83.2393 15.644C83.6233 14.908 84.0793 14.332 84.6073 13.916C85.1353 13.492 85.7593 13.28 86.4793 13.28C87.0473 13.28 87.5033 13.404 87.8473 13.652L87.6553 15.872C87.6153 16.016 87.5553 16.12 87.4753 16.184C87.4033 16.24 87.3033 16.268 87.1753 16.268C87.0553 16.268 86.8753 16.248 86.6353 16.208C86.4033 16.168 86.1753 16.148 85.9513 16.148C85.6233 16.148 85.3313 16.196 85.0753 16.292C84.8193 16.388 84.5873 16.528 84.3793 16.712C84.1793 16.888 83.9993 17.104 83.8393 17.36C83.6873 17.616 83.5433 17.908 83.4073 18.236V25.82H80.4433V13.508H82.1833C82.4873 13.508 82.6993 13.564 82.8193 13.676C82.9393 13.78 83.0193 13.972 83.0593 14.252L83.2393 15.644Z" fill="#2D2C2C"/>
<path d="M88.0269 24.188C88.0269 23.94 88.0709 23.704 88.1589 23.48C88.2549 23.256 88.3829 23.064 88.5429 22.904C88.7029 22.744 88.8949 22.616 89.1189 22.52C89.3429 22.424 89.5829 22.376 89.8389 22.376C90.0949 22.376 90.3309 22.424 90.5469 22.52C90.7709 22.616 90.9629 22.744 91.1229 22.904C91.2909 23.064 91.4229 23.256 91.5189 23.48C91.6149 23.704 91.6629 23.94 91.6629 24.188C91.6629 24.444 91.6149 24.684 91.5189 24.908C91.4229 25.124 91.2909 25.312 91.1229 25.472C90.9629 25.632 90.7709 25.756 90.5469 25.844C90.3309 25.94 90.0949 25.988 89.8389 25.988C89.5829 25.988 89.3429 25.94 89.1189 25.844C88.8949 25.756 88.7029 25.632 88.5429 25.472C88.3829 25.312 88.2549 25.124 88.1589 24.908C88.0709 24.684 88.0269 24.444 88.0269 24.188Z" fill="#2D2C2C"/>
<rect x="95.6628" y="0.634033" width="43.0629" height="32.732" rx="4" fill="#42BFEC"/>
<path d="M116.391 10.862V23.174H114.579C114.187 23.174 113.939 22.994 113.835 22.634L113.631 21.65C113.127 22.162 112.571 22.578 111.963 22.898C111.355 23.21 110.639 23.366 109.815 23.366C109.143 23.366 108.547 23.254 108.027 23.03C107.515 22.798 107.083 22.474 106.731 22.058C106.379 21.642 106.111 21.15 105.927 20.582C105.751 20.006 105.663 19.374 105.663 18.686V10.862H108.627V18.686C108.627 19.438 108.799 20.022 109.143 20.438C109.495 20.846 110.019 21.05 110.715 21.05C111.227 21.05 111.707 20.938 112.155 20.714C112.603 20.482 113.027 20.166 113.427 19.766V10.862H116.391Z" fill="white"/>
<path d="M125.834 17.918C124.978 17.958 124.258 18.034 123.674 18.146C123.09 18.25 122.622 18.386 122.27 18.554C121.918 18.722 121.666 18.918 121.514 19.142C121.362 19.366 121.286 19.61 121.286 19.874C121.286 20.394 121.438 20.766 121.742 20.99C122.054 21.214 122.458 21.326 122.954 21.326C123.562 21.326 124.086 21.218 124.526 21.002C124.974 20.778 125.41 20.442 125.834 19.994V17.918ZM119.042 12.578C120.458 11.282 122.162 10.634 124.154 10.634C124.874 10.634 125.518 10.754 126.086 10.994C126.654 11.226 127.134 11.554 127.526 11.978C127.918 12.394 128.214 12.894 128.414 13.478C128.622 14.062 128.726 14.702 128.726 15.398V23.174H127.382C127.102 23.174 126.886 23.134 126.734 23.054C126.582 22.966 126.462 22.794 126.374 22.538L126.11 21.65C125.798 21.93 125.494 22.178 125.198 22.394C124.902 22.602 124.594 22.778 124.274 22.922C123.954 23.066 123.61 23.174 123.242 23.246C122.882 23.326 122.482 23.366 122.042 23.366C121.522 23.366 121.042 23.298 120.602 23.162C120.162 23.018 119.782 22.806 119.462 22.526C119.142 22.246 118.894 21.898 118.718 21.482C118.542 21.066 118.454 20.582 118.454 20.03C118.454 19.718 118.506 19.41 118.61 19.106C118.714 18.794 118.882 18.498 119.114 18.218C119.354 17.938 119.662 17.674 120.038 17.426C120.414 17.178 120.874 16.962 121.418 16.778C121.97 16.594 122.61 16.446 123.338 16.334C124.066 16.214 124.898 16.142 125.834 16.118V15.398C125.834 14.574 125.658 13.966 125.306 13.574C124.954 13.174 124.446 12.974 123.782 12.974C123.302 12.974 122.902 13.03 122.582 13.142C122.27 13.254 121.994 13.382 121.754 13.526C121.514 13.662 121.294 13.786 121.094 13.898C120.902 14.01 120.686 14.066 120.446 14.066C120.238 14.066 120.062 14.014 119.918 13.91C119.774 13.798 119.658 13.67 119.57 13.526L119.042 12.578Z" fill="white"/>
</svg>
