<svg width="131" height="129" viewBox="0 0 131 129" fill="none" xmlns="http://www.w3.org/2000/svg">
<path d="M100.84 37C100.84 37 100.81 37 100.8 37C100.8 36.75 100.84 36.5 100.84 36.25C100.84 16.23 84.6099 0 64.5899 0C44.5699 0 28.3399 16.23 28.3399 36.25C28.3399 36.27 28.3399 36.3 28.3399 36.32C12.6299 37.05 0.109863 49.98 0.109863 65.86C0.109863 81.74 13.3698 95.47 29.7198 95.47H100.84C116.99 95.47 130.08 82.38 130.08 66.23C130.08 50.08 116.99 36.99 100.84 36.99V37Z" fill="#42BFEC"/>
<path d="M13.5899 128.29C12.9099 128.29 12.2199 128.11 11.5999 127.72C9.83987 126.62 9.29992 124.29 10.3999 122.53L39.6699 75.7C40.7699 73.93 43.0999 73.4 44.8599 74.5C46.6199 75.6 47.1599 77.93 46.0599 79.69L16.7899 126.52C16.0799 127.66 14.8499 128.29 13.5899 128.29Z" fill="#ADE0F3"/>
<path d="M74.2598 128.29C73.5798 128.29 72.8898 128.1 72.2698 127.72C70.5098 126.62 69.9698 124.29 71.0698 122.53L91.8098 89.34C92.9098 87.57 95.2398 87.04 96.9998 88.14C98.7598 89.24 99.2998 91.57 98.1998 93.33L77.4598 126.52C76.7498 127.66 75.5198 128.29 74.2598 128.29Z" fill="#ADE0F3"/>
<path d="M42.8596 128.29C42.1896 128.29 41.4997 128.11 40.8797 127.73C39.1097 126.64 38.5597 124.32 39.6497 122.55L80.6297 56.17C81.7197 54.4 84.0396 53.85 85.8097 54.94C87.5797 56.03 88.1296 58.35 87.0396 60.12L46.0597 126.5C45.3497 127.65 44.1096 128.29 42.8496 128.29H42.8596Z" fill="#ADE0F3"/>
</svg>
