<svg width="119" height="139" viewBox="0 0 119 139" fill="none" xmlns="http://www.w3.org/2000/svg">
<path d="M17.7601 0L3.34009 30.64C0.170086 37.38 0.030076 45.31 3.58008 51.85C6.09008 56.48 10.3901 60.45 17.7601 60.45C25.1301 60.45 29.4301 56.48 31.9401 51.85C35.4901 45.31 35.3501 37.37 32.1801 30.64L17.7601 0Z" fill="#ADE0F3"/>
<path d="M63.1699 53.22L55.4399 69.65C53.7399 73.26 53.6699 77.52 55.5699 81.03C56.9199 83.51 59.2199 85.64 63.1699 85.64C67.1199 85.64 69.4299 83.51 70.7699 81.03C72.6699 77.52 72.5999 73.27 70.8999 69.65L63.1699 53.22Z" fill="#ADE0F3"/>
<path d="M103.1 0L90.8 26.13C88.1 31.88 87.98 38.64 91 44.23C93.14 48.18 96.81 51.56 103.1 51.56C109.39 51.56 113.06 48.18 115.2 44.23C118.23 38.65 118.11 31.88 115.4 26.13L103.1 0Z" fill="#ADE0F3"/>
<path d="M34.5799 96.26L27.4699 111.38C25.9099 114.7 25.8399 118.62 27.5899 121.85C28.8299 124.13 30.9499 126.09 34.5899 126.09C38.2299 126.09 40.3499 124.13 41.5899 121.85C43.3399 118.62 43.2699 114.71 41.7099 111.38L34.5999 96.26H34.5799Z" fill="#ADE0F3"/>
<path d="M103.1 84.19L90.2301 111.55C87.4001 117.56 87.2701 124.65 90.4401 130.49C92.6801 134.62 96.5201 138.17 103.1 138.17C109.68 138.17 113.52 134.63 115.76 130.49C118.93 124.65 118.8 117.56 115.97 111.55L103.1 84.19Z" fill="#ADE0F3"/>
</svg>
