<svg width="161" height="134" viewBox="0 0 161 134" fill="none" xmlns="http://www.w3.org/2000/svg">
<path d="M136.56 66.89C120.05 66.89 106.67 53.51 106.67 37C106.67 20.49 120.05 7.10999 136.56 7.10999C139.19 7.10999 141.74 7.49001 144.17 8.13C137.11 3.06 128.48 0.0400085 119.13 0.0400085C95.3896 0.0400085 76.1396 19.29 76.1396 43.03C76.1396 66.77 95.3896 86.02 119.13 86.02C138.72 86.02 155.22 72.9 160.4 54.97C154.94 62.2 146.31 66.89 136.56 66.89Z" fill="#FAAF40"/>
<path d="M101.57 75.25C101.57 75.25 101.54 75.25 101.53 75.25C101.53 75 101.57 74.75 101.57 74.5C101.57 54.48 85.3398 38.25 65.3198 38.25C45.2998 38.25 29.0698 54.48 29.0698 74.5C29.0698 74.52 29.0698 74.55 29.0698 74.57C13.3598 75.3 0.839844 88.23 0.839844 104.11C0.839844 119.99 14.0998 133.72 30.4498 133.72H101.57C117.72 133.72 130.81 120.63 130.81 104.48C130.81 88.33 117.72 75.24 101.57 75.24V75.25Z" fill="#42BFEC"/>
</svg>
