<svg width="131" height="130" viewBox="0 0 131 130" fill="none" xmlns="http://www.w3.org/2000/svg">
<path d="M101.7 37.08C101.7 37.08 101.67 37.08 101.66 37.08C101.66 36.83 101.7 36.58 101.7 36.33C101.7 16.31 85.4702 0.0800171 65.4502 0.0800171C45.4302 0.0800171 29.2002 16.31 29.2002 36.33C29.2002 36.35 29.2002 36.38 29.2002 36.4C13.4902 37.13 0.970215 50.06 0.970215 65.94C0.970215 81.82 14.2302 95.55 30.5802 95.55H101.7C117.85 95.55 130.94 82.46 130.94 66.31C130.94 50.16 117.85 37.07 101.7 37.07V37.08Z" fill="#42BFEC"/>
<path d="M45.5104 81.87L34.0604 106.2C31.5404 111.55 31.4304 117.85 34.2504 123.05C36.2404 126.73 39.6604 129.88 45.5104 129.88C51.3604 129.88 54.7804 126.73 56.7704 123.05C59.5904 117.85 59.4804 111.55 56.9604 106.2L45.5104 81.87Z" fill="#ADE0F3"/>
<path d="M83.2302 65.16L71.7802 89.49C69.2602 94.84 69.1502 101.14 71.9702 106.34C73.9602 110.02 77.3802 113.17 83.2302 113.17C89.0802 113.17 92.5002 110.02 94.4902 106.34C97.3102 101.14 97.2002 94.84 94.6802 89.49L83.2302 65.16Z" fill="#ADE0F3"/>
</svg>
