<svg width="176" height="133" viewBox="0 0 176 133" fill="none" xmlns="http://www.w3.org/2000/svg">
<path d="M85.1916 81.4237C95.9759 68.9255 94.5865 50.0513 82.0883 39.267C69.5901 28.4826 50.7159 29.872 39.9316 42.3702C29.1472 54.8683 30.5366 73.7426 43.0348 84.5269C55.533 95.3113 74.4072 93.9219 85.1916 81.4237Z" fill="#FAAF40"/>
<path d="M62.5801 23.92C60.5001 23.92 58.8101 22.23 58.8101 20.15V3.77C58.8101 1.69 60.5001 0 62.5801 0C64.6601 0 66.35 1.69 66.35 3.77V20.16C66.35 22.24 64.6601 23.93 62.5801 23.93V23.92Z" fill="#FAAF40"/>
<path d="M20.41 66.1H4.01999C1.93999 66.1 0.25 64.41 0.25 62.33C0.25 60.25 1.93999 58.56 4.01999 58.56H20.41C22.49 58.56 24.18 60.25 24.18 62.33C24.18 64.41 22.49 66.1 20.41 66.1Z" fill="#FAAF40"/>
<path d="M32.7602 36.28C31.8002 36.28 30.8302 35.91 30.1002 35.18L18.5102 23.59C17.0402 22.12 17.0402 19.73 18.5102 18.26C19.9802 16.79 22.3702 16.79 23.8402 18.26L35.4302 29.85C36.9002 31.32 36.9002 33.71 35.4302 35.18C34.6902 35.92 33.7302 36.28 32.7702 36.28H32.7602Z" fill="#FAAF40"/>
<path d="M21.1702 107.51C20.2102 107.51 19.2402 107.14 18.5102 106.41C17.0402 104.94 17.0402 102.55 18.5102 101.08L30.1002 89.49C31.5702 88.02 33.9602 88.02 35.4302 89.49C36.9002 90.96 36.9002 93.35 35.4302 94.82L23.8402 106.41C23.1002 107.15 22.1402 107.51 21.1802 107.51H21.1702Z" fill="#FAAF40"/>
<path d="M92.4002 36.28C91.4402 36.28 90.4702 35.91 89.7402 35.18C88.2702 33.71 88.2702 31.32 89.7402 29.85L101.33 18.26C102.8 16.79 105.19 16.79 106.66 18.26C108.13 19.73 108.13 22.12 106.66 23.59L95.0702 35.18C94.3402 35.92 93.3702 36.28 92.4102 36.28H92.4002Z" fill="#FAAF40"/>
<path d="M145.79 73.54C145.79 73.54 145.76 73.54 145.75 73.54C145.75 73.29 145.79 73.04 145.79 72.79C145.79 52.77 129.56 36.54 109.54 36.54C89.52 36.54 73.29 52.77 73.29 72.79C73.29 72.81 73.29 72.84 73.29 72.86C57.58 73.59 45.0601 86.52 45.0601 102.4C45.0601 118.28 58.32 132.01 74.67 132.01H145.79C161.94 132.01 175.03 118.92 175.03 102.77C175.03 86.62 161.94 73.53 145.79 73.53V73.54Z" fill="#42BFEC"/>
</svg>
