<svg width="126" height="125" viewBox="0 0 126 125" fill="none" xmlns="http://www.w3.org/2000/svg">
<path d="M92.0207 68.8682C95.8631 52.8138 85.9634 36.6843 69.9091 32.8418C53.8547 28.9993 37.7251 38.8991 33.8827 54.9534C30.0402 71.0078 39.9399 87.1373 55.9943 90.9798C72.0487 94.8223 88.1782 84.9226 92.0207 68.8682Z" fill="#FAAF40"/>
<path d="M62.9599 23.92C60.8799 23.92 59.1899 22.23 59.1899 20.15V3.77C59.1899 1.69 60.8799 0 62.9599 0C65.0399 0 66.7299 1.69 66.7299 3.77V20.16C66.7299 22.24 65.0399 23.93 62.9599 23.93V23.92Z" fill="#FAAF40"/>
<path d="M62.9599 124.66C60.8799 124.66 59.1899 122.97 59.1899 120.89V104.5C59.1899 102.42 60.8799 100.73 62.9599 100.73C65.0399 100.73 66.7299 102.42 66.7299 104.5V120.89C66.7299 122.97 65.0399 124.66 62.9599 124.66Z" fill="#FAAF40"/>
<path d="M121.52 66.1H105.13C103.05 66.1 101.36 64.41 101.36 62.33C101.36 60.25 103.05 58.56 105.13 58.56H121.52C123.6 58.56 125.29 60.25 125.29 62.33C125.29 64.41 123.6 66.1 121.52 66.1Z" fill="#FAAF40"/>
<path d="M4.39012 66.1H20.7801C22.8601 66.1 24.5501 64.41 24.5501 62.33C24.5501 60.25 22.8601 58.56 20.7801 58.56H4.39012C2.31012 58.56 0.620117 60.25 0.620117 62.33C0.620117 64.41 2.31012 66.1 4.39012 66.1Z" fill="#FAAF40"/>
<path d="M33.1401 36.28C32.1801 36.28 31.2101 35.91 30.4801 35.18L18.8901 23.59C17.4201 22.12 17.4201 19.73 18.8901 18.26C20.3601 16.79 22.7501 16.79 24.2201 18.26L35.8101 29.85C37.2801 31.32 37.2801 33.71 35.8101 35.18C35.0701 35.92 34.1101 36.28 33.1501 36.28H33.1401Z" fill="#FAAF40"/>
<path d="M104.37 107.51C103.41 107.51 102.44 107.14 101.71 106.41L90.1201 94.82C88.6501 93.35 88.6501 90.96 90.1201 89.49C91.5901 88.02 93.9801 88.02 95.4501 89.49L107.04 101.08C108.51 102.55 108.51 104.94 107.04 106.41C106.3 107.15 105.34 107.51 104.38 107.51H104.37Z" fill="#FAAF40"/>
<path d="M21.5501 107.51C20.5901 107.51 19.6201 107.14 18.8901 106.41C17.4201 104.94 17.4201 102.55 18.8901 101.08L30.4801 89.49C31.9501 88.02 34.3401 88.02 35.8101 89.49C37.2801 90.96 37.2801 93.35 35.8101 94.82L24.2201 106.41C23.4801 107.15 22.5201 107.51 21.5601 107.51H21.5501Z" fill="#FAAF40"/>
<path d="M92.7801 36.28C91.8201 36.28 90.8501 35.91 90.1201 35.18C88.6501 33.71 88.6501 31.32 90.1201 29.85L101.71 18.26C103.18 16.79 105.57 16.79 107.04 18.26C108.51 19.73 108.51 22.12 107.04 23.59L95.4501 35.18C94.7201 35.92 93.7501 36.28 92.7901 36.28H92.7801Z" fill="#FAAF40"/>
</svg>
