<svg width="131" height="144" viewBox="0 0 131 144" fill="none" xmlns="http://www.w3.org/2000/svg">
<path d="M101.33 37.7C101.33 37.7 101.3 37.7 101.29 37.7C101.29 37.45 101.33 37.2 101.33 36.95C101.33 16.93 85.1001 0.700012 65.0801 0.700012C45.0601 0.700012 28.8301 16.93 28.8301 36.95C28.8301 36.97 28.8301 37 28.8301 37.02C13.1201 37.75 0.600098 50.68 0.600098 66.56C0.600098 82.44 13.8601 96.17 30.2101 96.17H101.33C117.48 96.17 130.57 83.08 130.57 66.93C130.57 50.78 117.48 37.69 101.33 37.69V37.7Z" fill="#42BFEC"/>
<path d="M96.5399 87.3H60.5099L78.7799 54.83H60.5099L34.6299 101.44H62.5399L51.3699 143.63L96.5399 87.3Z" fill="#FAAF40"/>
</svg>
