<svg width="140" height="156" viewBox="0 0 140 156" fill="none" xmlns="http://www.w3.org/2000/svg">
<path d="M69.96 19.09C31.32 19.09 0 50.41 0 89.05C0 90.89 0.09 92.7 0.23 94.5C1.75 83.2 11.4 74.48 23.12 74.48C34.84 74.48 44.49 83.2 46 94.5H46.48C48 83.2 57.65 74.48 69.36 74.48C69.56 74.48 69.75 74.5 69.95 74.51C70.15 74.51 70.34 74.48 70.54 74.48C82.26 74.48 91.9 83.2 93.42 94.5H93.9C95.42 83.2 105.07 74.48 116.78 74.48C128.49 74.48 138.15 83.2 139.67 94.5C139.81 92.7 139.9 90.89 139.9 89.05C139.9 50.41 108.58 19.09 69.94 19.09H69.96Z" fill="#2EAFD2"/>
<path d="M83.1399 155.09C73.7899 155.09 66.1899 147.49 66.1899 138.14V86.65C66.1899 84.57 67.8799 82.88 69.9599 82.88C72.0399 82.88 73.7299 84.57 73.7299 86.65V138.14C73.7299 143.33 77.9499 147.55 83.1399 147.55C88.3299 147.55 92.5499 143.33 92.5499 138.14V135.62C92.5499 133.54 94.2399 131.85 96.3199 131.85C98.3999 131.85 100.09 133.54 100.09 135.62V138.14C100.09 147.48 92.4899 155.09 83.1399 155.09Z" fill="#2EAFD2"/>
<path d="M69.9599 17.59C67.8799 17.59 66.1899 15.9 66.1899 13.82V3.77002C66.1899 1.69002 67.8799 0 69.9599 0C72.0399 0 73.7299 1.69002 73.7299 3.77002V13.82C73.7299 15.9 72.0399 17.59 69.9599 17.59Z" fill="#2EAFD2"/>
</svg>
