<svg width="20" height="20" viewBox="0 0 20 20" fill="none" xmlns="http://www.w3.org/2000/svg">
<path d="M10 17C8.3375 17 6.92175 16.4351 5.75275 15.3053C4.58375 14.1754 3.9995 12.8 4 11.1789C4 10.4053 4.15325 9.66547 4.45975 8.95958C4.76625 8.25368 5.2005 7.63032 5.7625 7.08947L10 3L14.2375 7.08947C14.8 7.62982 15.2345 8.25319 15.541 8.95958C15.8475 9.66597 16.0005 10.4058 16 11.1789C16 12.8 15.4157 14.1754 14.2472 15.3053C13.0787 16.4351 11.663 17 10 17ZM5.5 11.1789H14.5C14.5 10.6018 14.3875 10.0523 14.1625 9.53063C13.9375 9.00895 13.6125 8.55137 13.1875 8.15789L10 5.06316L6.8125 8.15789C6.3875 8.55088 6.0625 9.00846 5.8375 9.53063C5.6125 10.0528 5.5 10.6022 5.5 11.1789Z" fill="#868686"/>
</svg>
