<svg width="20" height="20" viewBox="0 0 20 20" fill="none" xmlns="http://www.w3.org/2000/svg">
<path d="M6.9079 16.3869L7.56101 15.0804M12.7859 16.3869L13.439 15.0804M9.19378 19L9.84689 17.6935M3.3158 19L3.96891 17.6935M15.0718 19L15.7249 17.6935M15.7249 11.814C16.189 11.8153 16.6481 11.7177 17.0715 11.5277C17.4949 11.3376 17.873 11.0594 18.1805 10.7117C18.488 10.364 18.7178 9.95466 18.8547 9.51108C18.9916 9.0675 19.0324 8.59983 18.9744 8.13923C18.9163 7.67864 18.7608 7.23572 18.5182 6.83998C18.2756 6.44424 17.9514 6.10478 17.5672 5.84422C17.1831 5.58367 16.7479 5.40801 16.2906 5.32896C15.8332 5.2499 15.3643 5.26927 14.915 5.38576C14.6539 4.41423 14.0798 3.55594 13.2816 2.94384C12.4835 2.33174 11.5058 2 10.5 2C9.49424 2 8.51654 2.33174 7.71837 2.94384C6.92019 3.55594 6.34608 4.41423 6.08498 5.38576C5.63571 5.26927 5.16678 5.2499 4.70945 5.32896C4.25211 5.40801 3.81687 5.58367 3.43275 5.84422C3.04863 6.10478 2.72444 6.44424 2.4818 6.83998C2.23917 7.23572 2.08365 7.67864 2.02562 8.13923C1.9676 8.59983 2.00839 9.0675 2.14529 9.51108C2.28218 9.95466 2.51204 10.364 2.81953 10.7117C3.12702 11.0594 3.50508 11.3376 3.92851 11.5277C4.35194 11.7177 4.81101 11.8153 5.27513 11.814H15.7249Z" stroke="#868686" stroke-width="1.5" stroke-linecap="round" stroke-linejoin="round"/>
</svg>
